<svg id="Layer_1" data-name="Layer 1" xmlns="http://www.w3.org/2000/svg" viewBox="0 0 490 252.5"><defs><style>.cls-1{fill:#307fe2;}.cls-2{fill:#41b6e6;}.cls-3{fill:#fa0;}</style></defs><title>brand-page-logo</title><polygon class="cls-1" points="398.33 120 398.33 145 376.67 157.5 376.67 132.5 355 145 355 170 376.67 182.5 420 157.5 420 107.5 398.33 120"/><polygon class="cls-2" points="376.67 157.5 398.33 145 420 157.5 376.67 182.5 376.67 157.5"/><polygon class="cls-3" points="376.67 95.22 355 107.72 355 132.72 376.67 120.22 376.67 95.22"/><polygon class="cls-3" points="420 70 398.33 82.5 398.33 107.5 420 95 420 70"/><path class="cls-1" d="M162.47,153.52a27,27,0,0,1-19.19,7.73q-11,0-18.21-6.79t-7.19-18.2q0-11.42,7.33-18.16a24.71,24.71,0,0,1,17.31-6.74,25,25,0,0,1,16.95,6q7,6,7,16.54v7.19H131.18a9.61,9.61,0,0,0,4.14,6.47,13.23,13.23,0,0,0,7.91,2.52,15.52,15.52,0,0,0,11.69-4.77Zm-12.95-28.68a10.22,10.22,0,0,0-6.79-2.34,12.14,12.14,0,0,0-7.33,2.43,9.28,9.28,0,0,0-3.87,6.56h21.22A9.58,9.58,0,0,0,149.52,124.84Z"/><path class="cls-1" d="M214,134.46v26.79H200.47V134.1q0-5.75-1.75-8.45t-5.66-2.7a9.67,9.67,0,0,0-6.92,2.92q-3,2.92-3,8.59v26.79H169.63V112.16h13.49v5.48q5.57-6.29,12.77-6.29a13.87,13.87,0,0,1,8.32,2.7,17.56,17.56,0,0,1,5.62,6.56,19,19,0,0,1,7.51-6.83,20.56,20.56,0,0,1,9.48-2.43q8.54,0,13.76,5.08t5.21,14.7v30.12H232.2V134.1Q232.2,123,224,123a9.67,9.67,0,0,0-7,2.92Q214,128.79,214,134.46Z"/><path class="cls-1" d="M323.09,112.16v26.07q0,5.58-3,8.5a9.66,9.66,0,0,1-7,2.92q-8.18,0-8.18-11.15V112.16H277.37l-14.9,15.91V91.25c-1.32.76-12.91,7.49-13.49,7.82v62.18h13.49V146.6l4.41-4.58,12.8,19.24h16L276,131.67l15.31-16.19v26q0,9.8,5.39,14.79a18.92,18.92,0,0,0,13.35,5q8,0,13-7.1v7.1h13.58V112.16Z"/><path class="cls-1" d="M70,99.29V105h0v6.7l14-8.1c0-2.66,0-3.06,0-5.72h0V91.25Z"/><path class="cls-1" d="M116.57,147.34a7.74,7.74,0,0,1-2.81,1.74,7.43,7.43,0,0,1-2.43.39,4.48,4.48,0,0,1-3.42-1.57,6.22,6.22,0,0,1-1.44-4.36V121.87h11.69v-9.71H106.48V98.66L92.9,106.5v5.66H87.24v9.71H92.9v22.3q0,7.91,4.81,12.5a16.45,16.45,0,0,0,4.35,3,17.38,17.38,0,0,0,7.43,1.58A19.47,19.47,0,0,0,122.15,156,25,25,0,0,1,116.57,147.34Z"/><polygon class="cls-1" points="70 119.69 70 161.25 84.03 161.25 84.03 111.59 70 119.69"/></svg>